<?xml version="1.0" encoding="UTF-8"?>
<!DOCTYPE svg PUBLIC "-//W3C//DTD SVG 1.1//EN" "http://www.w3.org/Graphics/SVG/1.1/DTD/svg11.dtd">
<svg xmlns="http://www.w3.org/2000/svg" version="1.1" width="183px" height="220px" style="shape-rendering:geometricPrecision; text-rendering:geometricPrecision; image-rendering:optimizeQuality; fill-rule:evenodd; clip-rule:evenodd" xmlns:xlink="http://www.w3.org/1999/xlink">
    <g><path style="opacity:1" fill="#fdfefd" d="M -0.5,-0.5 C 60.5,-0.5 121.5,-0.5 182.5,-0.5C 182.5,72.8333 182.5,146.167 182.5,219.5C 121.5,219.5 60.5,219.5 -0.5,219.5C -0.5,146.167 -0.5,72.8333 -0.5,-0.5 Z"/></g>
    <g><path style="opacity:1" fill="#9bcf8f" d="M 152.5,53.5 C 156.773,55.3053 160.773,57.6386 164.5,60.5C 165.828,81.3294 165.828,101.996 164.5,122.5C 164.5,119.833 164.5,117.167 164.5,114.5C 164.5,110.5 164.5,106.5 164.5,102.5C 164.666,95.1591 164.5,87.8258 164,80.5C 163.667,80.8333 163.333,81.1667 163,81.5C 162.261,79.7795 161.427,78.1128 160.5,76.5C 155.29,76.5627 150.957,74.396 147.5,70C 144.676,70.7454 142.676,69.5788 141.5,66.5C 137.057,65.1999 132.724,63.6999 128.5,62C 125.838,58.1677 122.172,56.3344 117.5,56.5C 117.5,57.5 117.5,58.5 117.5,59.5C 114.144,59.8434 112.144,58.8434 111.5,56.5C 110.232,57.4279 108.899,57.5946 107.5,57C 106.377,55.9563 105.044,55.2896 103.5,55C 104.167,54.6667 104.833,54.3333 105.5,54C 103.99,53.1502 102.49,52.3169 101,51.5C 98.4798,51.5976 95.9798,51.5976 93.5,51.5C 88.7788,49.2826 84.7788,46.116 81.5,42C 77.1789,42.4325 73.8456,40.9325 71.5,37.5C 68.143,36.6321 65.3096,34.9654 63,32.5C 61.2745,33.464 59.4412,34.1307 57.5,34.5C 61.6346,31.9306 65.9679,29.5972 70.5,27.5C 72.6792,26.9408 74.8458,26.2741 77,25.5C 79.5046,27.3395 82.0046,29.1729 84.5,31C 87.6883,31.7554 90.8549,32.5887 94,33.5C 96.5049,35.6723 99.0049,37.839 101.5,40C 103.464,40.624 105.131,40.124 106.5,38.5C 110.201,38.9698 113.534,40.3031 116.5,42.5C 119.086,43.48 121.753,43.8134 124.5,43.5C 124.281,44.675 124.614,45.675 125.5,46.5C 127.059,47.0736 128.559,47.7402 130,48.5C 130.333,48.1667 130.667,47.8333 131,47.5C 131.483,48.448 131.649,49.448 131.5,50.5C 132.822,50.67 133.989,50.3366 135,49.5C 136.067,50.1905 137.234,50.6905 138.5,51C 137.664,52.2433 137.997,53.4099 139.5,54.5C 141.326,54.0798 143.326,54.0798 145.5,54.5C 146.004,58.3354 147.004,58.3354 148.5,54.5C 149.736,53.7542 151.07,53.4208 152.5,53.5 Z"/></g>
    <g><path style="opacity:1" fill="#adda99" d="M 152.5,53.5 C 151.07,53.4208 149.736,53.7542 148.5,54.5C 147.004,58.3354 146.004,58.3354 145.5,54.5C 143.326,54.0798 141.326,54.0798 139.5,54.5C 137.997,53.4099 137.664,52.2433 138.5,51C 137.234,50.6905 136.067,50.1905 135,49.5C 133.989,50.3366 132.822,50.67 131.5,50.5C 131.649,49.448 131.483,48.448 131,47.5C 130.667,47.8333 130.333,48.1667 130,48.5C 128.559,47.7402 127.059,47.0736 125.5,46.5C 124.614,45.675 124.281,44.675 124.5,43.5C 121.753,43.8134 119.086,43.48 116.5,42.5C 113.534,40.3031 110.201,38.9698 106.5,38.5C 105.131,40.124 103.464,40.624 101.5,40C 99.0049,37.839 96.5049,35.6723 94,33.5C 90.8549,32.5887 87.6883,31.7554 84.5,31C 82.0046,29.1729 79.5046,27.3395 77,25.5C 74.8458,26.2741 72.6792,26.9408 70.5,27.5C 70.9528,26.5416 71.6195,25.7083 72.5,25C 78.0286,22.4041 83.3619,19.5707 88.5,16.5C 109.979,28.2519 131.312,40.5852 152.5,53.5 Z"/></g>
    <g><path style="opacity:1" fill="#077e44" d="M 26.5,52.5 C 27.7429,54.5782 29.4095,56.4115 31.5,58C 33.7885,58.8221 36.1218,59.4888 38.5,60C 40.234,61.7342 42.234,63.0676 44.5,64C 40.9748,64.1787 37.6414,64.6787 34.5,65.5C 31.9205,66.2276 29.2538,66.7276 26.5,67C 24.9336,67.6082 23.6002,68.4415 22.5,69.5C 18.9099,70.6284 15.5766,72.295 12.5,74.5C 11.3384,69.8687 11.1717,65.202 12,60.5C 16.6466,57.4282 21.4799,54.7615 26.5,52.5 Z"/></g>
    <g><path style="opacity:1" fill="#459e5b" d="M 98.5,66.5 C 102.885,72.6043 106.219,79.2709 108.5,86.5C 108.5,87.1667 108.5,87.8333 108.5,88.5C 105.453,86.6499 102.12,85.3166 98.5,84.5C 96.1167,85.462 95.1167,84.462 95.5,81.5C 87.7247,81.0541 83.058,77.0541 81.5,69.5C 79.0372,69.2189 76.8705,68.2189 75,66.5C 74.2232,68.7015 73.0565,68.7015 71.5,66.5C 72.6682,65.0944 72.3348,63.9277 70.5,63C 65.6166,60.232 60.7833,58.3987 56,57.5C 54.9229,55.884 54.4229,54.0507 54.5,52C 54.7978,49.1523 55.1312,46.3189 55.5,43.5C 50.4376,43.2743 45.4376,43.6076 40.5,44.5C 44.5859,40.9068 49.2526,38.2401 54.5,36.5C 55.5832,36.4606 56.5832,36.1272 57.5,35.5C 57.8333,36 58.1667,36.5 58.5,37C 57.5212,39.4333 56.8545,41.9333 56.5,44.5C 66.4898,45.7743 75.8231,48.941 84.5,54C 89.4686,57.9589 94.1353,62.1255 98.5,66.5 Z"/></g>
    <g><path style="opacity:1" fill="#89c583" d="M 164.5,102.5 C 160.371,103.607 157.371,102.107 155.5,98C 157.085,97.9152 158.418,97.7486 159.5,97.5C 154.279,96.3756 154.279,95.5423 159.5,95C 157.377,93.8063 155.043,93.1397 152.5,93C 146.483,87.5751 139.483,84.0751 131.5,82.5C 131.5,81.5 131.5,80.5 131.5,79.5C 121.699,74.8999 111.699,71.5665 101.5,69.5C 101.5,68.5 101.5,67.5 101.5,66.5C 100.5,66.5 99.5,66.5 98.5,66.5C 94.1353,62.1255 89.4686,57.9589 84.5,54C 75.8231,48.941 66.4898,45.7743 56.5,44.5C 56.8545,41.9333 57.5212,39.4333 58.5,37C 58.1667,36.5 57.8333,36 57.5,35.5C 56.5832,36.1272 55.5832,36.4606 54.5,36.5C 54.9731,35.0937 55.9731,34.427 57.5,34.5C 59.4412,34.1307 61.2745,33.464 63,32.5C 65.3096,34.9654 68.143,36.6321 71.5,37.5C 73.8456,40.9325 77.1789,42.4325 81.5,42C 84.7788,46.116 88.7788,49.2826 93.5,51.5C 95.9798,51.5976 98.4798,51.5976 101,51.5C 102.49,52.3169 103.99,53.1502 105.5,54C 104.833,54.3333 104.167,54.6667 103.5,55C 105.044,55.2896 106.377,55.9563 107.5,57C 108.899,57.5946 110.232,57.4279 111.5,56.5C 112.144,58.8434 114.144,59.8434 117.5,59.5C 117.5,58.5 117.5,57.5 117.5,56.5C 122.172,56.3344 125.838,58.1677 128.5,62C 132.724,63.6999 137.057,65.1999 141.5,66.5C 142.676,69.5788 144.676,70.7454 147.5,70C 150.957,74.396 155.29,76.5627 160.5,76.5C 161.427,78.1128 162.261,79.7795 163,81.5C 163.333,81.1667 163.667,80.8333 164,80.5C 164.5,87.8258 164.666,95.1591 164.5,102.5 Z"/></g>
    <g><path style="opacity:1" fill="#55a1c7" d="M 29.5,73.5 C 33.9028,74.5348 38.2361,75.0348 42.5,75C 47.3207,80.2398 52.9873,84.2398 59.5,87C 60.6687,89.0065 61.3354,91.1732 61.5,93.5C 65.4811,95.8144 69.8145,97.6477 74.5,99C 76.4486,101.267 78.782,102.934 81.5,104C 81.9615,105.722 82.1282,107.555 82,109.5C 83.4902,108.272 84.9902,108.272 86.5,109.5C 87.4756,110.815 88.4756,112.148 89.5,113.5C 89,113.833 88.5,114.167 88,114.5C 76.4189,109.141 64.2522,107.141 51.5,108.5C 55.6344,107.515 59.9677,107.182 64.5,107.5C 65.552,107.649 66.552,107.483 67.5,107C 64.59,103.916 62.2567,100.416 60.5,96.5C 56.9083,94.5186 53.2416,92.6852 49.5,91C 44.3787,87.7113 39.7121,83.878 35.5,79.5C 33.9936,78.2528 32.4936,78.2528 31,79.5C 30.4926,78.0039 30.9926,76.8373 32.5,76C 32.1667,75.6667 31.8333,75.3333 31.5,75C 28.8428,74.8253 26.1761,74.9919 23.5,75.5C 23.5,74.8333 23.8333,74.5 24.5,74.5C 26.0418,73.6993 27.7085,73.366 29.5,73.5 Z"/></g>
    <g><path style="opacity:1" fill="#239050" d="M 108.5,88.5 C 109.728,92.8789 111.061,97.2122 112.5,101.5C 112.5,101.833 112.5,102.167 112.5,102.5C 112.071,103.953 111.904,105.619 112,107.5C 111,106.167 110,106.167 109,107.5C 106.457,105.646 103.624,104.479 100.5,104C 99.1198,102.676 98.7865,101.343 99.5,100C 96.8575,96.8979 94.0242,96.7313 91,99.5C 90.5831,98.244 89.7498,97.5774 88.5,97.5C 78.262,74.0377 60.262,63.3711 34.5,65.5C 37.6414,64.6787 40.9748,64.1787 44.5,64C 42.234,63.0676 40.234,61.7342 38.5,60C 36.1218,59.4888 33.7885,58.8221 31.5,58C 29.4095,56.4115 27.7429,54.5782 26.5,52.5C 30.833,49.331 35.4997,46.6643 40.5,44.5C 45.4376,43.6076 50.4376,43.2743 55.5,43.5C 55.1312,46.3189 54.7978,49.1523 54.5,52C 54.4229,54.0507 54.9229,55.884 56,57.5C 60.7833,58.3987 65.6166,60.232 70.5,63C 72.3348,63.9277 72.6682,65.0944 71.5,66.5C 73.0565,68.7015 74.2232,68.7015 75,66.5C 76.8705,68.2189 79.0372,69.2189 81.5,69.5C 83.058,77.0541 87.7247,81.0541 95.5,81.5C 95.1167,84.462 96.1167,85.462 98.5,84.5C 102.12,85.3166 105.453,86.6499 108.5,88.5 Z"/></g>
    <g><path style="opacity:1" fill="#4b95bd" d="M 64.5,107.5 C 63.0821,105.692 61.0821,105.025 58.5,105.5C 58.5,104.5 58.5,103.5 58.5,102.5C 56.8333,102.5 55.1667,102.5 53.5,102.5C 53.719,101.325 53.3857,100.325 52.5,99.5C 45.7869,95.7562 39.1202,92.0895 32.5,88.5C 31.7022,86.9223 31.2022,85.2556 31,83.5C 30.6667,83.8333 30.3333,84.1667 30,84.5C 27.3396,83.1657 24.5063,82.3324 21.5,82C 20.5291,80.5187 19.1958,79.6854 17.5,79.5C 18.8021,77.1782 20.8021,75.8449 23.5,75.5C 26.1761,74.9919 28.8428,74.8253 31.5,75C 31.8333,75.3333 32.1667,75.6667 32.5,76C 30.9926,76.8373 30.4926,78.0039 31,79.5C 32.4936,78.2528 33.9936,78.2528 35.5,79.5C 39.7121,83.878 44.3787,87.7113 49.5,91C 53.2416,92.6852 56.9083,94.5186 60.5,96.5C 62.2567,100.416 64.59,103.916 67.5,107C 66.552,107.483 65.552,107.649 64.5,107.5 Z"/></g>
    <g><path style="opacity:1" fill="#4184ac" d="M 17.5,79.5 C 19.1958,79.6854 20.5291,80.5187 21.5,82C 24.5063,82.3324 27.3396,83.1657 30,84.5C 30.3333,84.1667 30.6667,83.8333 31,83.5C 31.2022,85.2556 31.7022,86.9223 32.5,88.5C 39.1202,92.0895 45.7869,95.7562 52.5,99.5C 53.3857,100.325 53.719,101.325 53.5,102.5C 55.1667,102.5 56.8333,102.5 58.5,102.5C 58.5,103.5 58.5,104.5 58.5,105.5C 61.0821,105.025 63.0821,105.692 64.5,107.5C 59.9677,107.182 55.6344,107.515 51.5,108.5C 49.5,108.5 47.5,108.5 45.5,108.5C 40.8518,105.065 35.8518,102.065 30.5,99.5C 28.5175,95.8798 25.5175,93.5465 21.5,92.5C 18.4895,89.9885 15.6561,87.3218 13,84.5C 12.5012,88.4862 12.3345,92.4862 12.5,96.5C 12.815,100.371 12.4816,104.038 11.5,107.5C 11.1688,99.1401 11.5021,90.8068 12.5,82.5C 13.9397,81.0476 15.6064,80.0476 17.5,79.5 Z"/></g>
    <g><path style="opacity:1" fill="#62b0d4" d="M 86.5,109.5 C 84.9902,108.272 83.4902,108.272 82,109.5C 82.1282,107.555 81.9615,105.722 81.5,104C 78.782,102.934 76.4486,101.267 74.5,99C 69.8145,97.6477 65.4811,95.8144 61.5,93.5C 61.3354,91.1732 60.6687,89.0065 59.5,87C 52.9873,84.2398 47.3207,80.2398 42.5,75C 38.2361,75.0348 33.9028,74.5348 29.5,73.5C 59.1751,68.1181 78.1751,80.1181 86.5,109.5 Z"/></g>
    <g><path style="opacity:1" fill="#36739e" d="M 45.5,108.5 C 40.5758,110.48 35.5758,112.48 30.5,114.5C 30.5,113.5 30.5,112.5 30.5,111.5C 29.5,111.5 28.5,111.5 27.5,111.5C 27.762,110.022 27.4287,108.689 26.5,107.5C 23.3623,106.195 21.029,104.029 19.5,101C 18.552,100.517 17.552,100.351 16.5,100.5C 16.5,99.5 16.5,98.5 16.5,97.5C 15.0413,97.5674 13.7079,97.2341 12.5,96.5C 12.3345,92.4862 12.5012,88.4862 13,84.5C 15.6561,87.3218 18.4895,89.9885 21.5,92.5C 25.5175,93.5465 28.5175,95.8798 30.5,99.5C 35.8518,102.065 40.8518,105.065 45.5,108.5 Z"/></g>
    <g><path style="opacity:1" fill="#088147" d="M 88.5,97.5 C 89.7498,97.5774 90.5831,98.244 91,99.5C 94.0242,96.7313 96.8575,96.8979 99.5,100C 98.7865,101.343 99.1198,102.676 100.5,104C 103.624,104.479 106.457,105.646 109,107.5C 110,106.167 111,106.167 112,107.5C 111.904,105.619 112.071,103.953 112.5,102.5C 118.64,113.577 127.64,121.41 139.5,126C 143.623,127.192 147.623,128.359 151.5,129.5C 147.773,130.348 144.107,131.348 140.5,132.5C 115.055,132.699 97.7215,121.032 88.5,97.5 Z"/></g>
    <g><path style="opacity:1" fill="#6eb677" d="M 98.5,66.5 C 99.5,66.5 100.5,66.5 101.5,66.5C 101.5,67.5 101.5,68.5 101.5,69.5C 111.699,71.5665 121.699,74.8999 131.5,79.5C 131.5,80.5 131.5,81.5 131.5,82.5C 139.483,84.0751 146.483,87.5751 152.5,93C 155.043,93.1397 157.377,93.8063 159.5,95C 154.279,95.5423 154.279,96.3756 159.5,97.5C 158.418,97.7486 157.085,97.9152 155.5,98C 157.371,102.107 160.371,103.607 164.5,102.5C 164.5,106.5 164.5,110.5 164.5,114.5C 163.833,114.833 163.167,115.167 162.5,115.5C 157.725,112.453 152.058,110.453 145.5,109.5C 145.67,108.178 145.337,107.011 144.5,106C 140.814,105.441 137.147,104.774 133.5,104C 132.027,103.29 131.36,102.124 131.5,100.5C 130.127,100.657 128.793,100.49 127.5,100C 125.517,98.1111 123.184,96.7777 120.5,96C 116.696,92.7081 112.696,89.5414 108.5,86.5C 106.219,79.2709 102.885,72.6043 98.5,66.5 Z"/></g>
    <g><path style="opacity:1" fill="#295884" d="M 12.5,96.5 C 13.7079,97.2341 15.0413,97.5674 16.5,97.5C 16.5,98.5 16.5,99.5 16.5,100.5C 17.552,100.351 18.552,100.517 19.5,101C 21.029,104.029 23.3623,106.195 26.5,107.5C 27.4287,108.689 27.762,110.022 27.5,111.5C 28.5,111.5 29.5,111.5 30.5,111.5C 30.5,112.5 30.5,113.5 30.5,114.5C 23.5308,118.806 17.5308,124.139 12.5,130.5C 11.508,123.018 11.1746,115.352 11.5,107.5C 12.4816,104.038 12.815,100.371 12.5,96.5 Z"/></g>
    <g><path style="opacity:1" fill="#5dac70" d="M 108.5,86.5 C 112.696,89.5414 116.696,92.7081 120.5,96C 123.184,96.7777 125.517,98.1111 127.5,100C 128.793,100.49 130.127,100.657 131.5,100.5C 131.36,102.124 132.027,103.29 133.5,104C 137.147,104.774 140.814,105.441 144.5,106C 145.337,107.011 145.67,108.178 145.5,109.5C 152.058,110.453 157.725,112.453 162.5,115.5C 161.608,117.946 160.108,118.612 158,117.5C 156.605,120.167 154.605,122.167 152,123.5C 151.692,122.692 151.192,122.025 150.5,121.5C 141.842,117.516 133.175,113.516 124.5,109.5C 123.359,108.575 123.359,107.741 124.5,107C 121.98,105.237 119.647,103.237 117.5,101C 115.893,101.019 114.226,101.185 112.5,101.5C 111.061,97.2122 109.728,92.8789 108.5,88.5C 108.5,87.8333 108.5,87.1667 108.5,86.5 Z"/></g>
    <g><path style="opacity:1" fill="#50a36b" d="M 162.5,115.5 C 163.167,115.167 163.833,114.833 164.5,114.5C 164.5,117.167 164.5,119.833 164.5,122.5C 160.326,125.088 155.993,127.421 151.5,129.5C 147.623,128.359 143.623,127.192 139.5,126C 127.64,121.41 118.64,113.577 112.5,102.5C 112.5,102.167 112.5,101.833 112.5,101.5C 114.226,101.185 115.893,101.019 117.5,101C 119.647,103.237 121.98,105.237 124.5,107C 123.359,107.741 123.359,108.575 124.5,109.5C 133.175,113.516 141.842,117.516 150.5,121.5C 151.192,122.025 151.692,122.692 152,123.5C 154.605,122.167 156.605,120.167 158,117.5C 160.108,118.612 161.608,117.946 162.5,115.5 Z"/></g>
    <g><path style="opacity:1" fill="#f0f9f6" d="M 34.5,65.5 C 60.262,63.3711 78.262,74.0377 88.5,97.5C 97.7215,121.032 115.055,132.699 140.5,132.5C 136.881,132.881 133.548,133.881 130.5,135.5C 115.998,132.833 102.665,127.333 90.5,119C 84.8269,116.246 78.8269,114.413 72.5,113.5C 58.9215,110.074 45.9215,111.408 33.5,117.5C 25.6998,120.633 19.3665,125.633 14.5,132.5C 14.5,131.167 13.8333,130.5 12.5,130.5C 17.5308,124.139 23.5308,118.806 30.5,114.5C 35.5758,112.48 40.5758,110.48 45.5,108.5C 47.5,108.5 49.5,108.5 51.5,108.5C 64.2522,107.141 76.4189,109.141 88,114.5C 88.5,114.167 89,113.833 89.5,113.5C 88.4756,112.148 87.4756,110.815 86.5,109.5C 78.1751,80.1181 59.1751,68.1181 29.5,73.5C 27.7085,73.366 26.0418,73.6993 24.5,74.5C 22.0608,72.3095 22.7275,70.8095 26.5,70C 25.2068,69.51 23.8734,69.3433 22.5,69.5C 23.6002,68.4415 24.9336,67.6082 26.5,67C 29.2538,66.7276 31.9205,66.2276 34.5,65.5 Z"/></g>
    <g><path style="opacity:1" fill="#6ccac2" d="M 72.5,113.5 C 75.3221,115.982 77.3221,118.982 78.5,122.5C 81.8164,128.998 86.1498,134.831 91.5,140C 95.1951,139.162 98.8618,139.495 102.5,141C 110.069,142.64 117.069,145.64 123.5,150C 126.424,150.988 129.424,151.654 132.5,152C 130.478,154.018 127.978,154.852 125,154.5C 120.181,153.909 115.348,153.576 110.5,153.5C 104.979,152.284 99.6459,150.451 94.5,148C 84.8467,142.008 74.8467,136.841 64.5,132.5C 66.7505,132.819 68.7505,132.319 70.5,131C 61.1028,128.129 52.1028,124.462 43.5,120C 40.1983,118.974 36.8649,118.14 33.5,117.5C 45.9215,111.408 58.9215,110.074 72.5,113.5 Z"/></g>
    <g><path style="opacity:1" fill="#4fc1b7" d="M 33.5,117.5 C 36.8649,118.14 40.1983,118.974 43.5,120C 52.1028,124.462 61.1028,128.129 70.5,131C 68.7505,132.319 66.7505,132.819 64.5,132.5C 53.5497,130.892 42.5497,130.392 31.5,131C 26.4227,131.595 21.756,133.095 17.5,135.5C 11.1486,138.846 10.1486,137.846 14.5,132.5C 19.3665,125.633 25.6998,120.633 33.5,117.5 Z"/></g>
    <g><path style="opacity:1" fill="#8ed6d1" d="M 78.5,122.5 C 81.1989,124.808 84.3655,126.475 88,127.5C 88.414,127.043 88.914,126.709 89.5,126.5C 98.5348,134.012 108.868,137.179 120.5,136C 116.728,136.611 116.728,137.611 120.5,139C 126.093,140.629 131.76,141.962 137.5,143C 138.551,144.385 139.884,145.385 141.5,146C 144.974,146.301 148.308,147.134 151.5,148.5C 153.345,147.605 154.678,148.272 155.5,150.5C 151.141,152.81 146.475,154.31 141.5,155C 132.5,155.667 123.5,155.667 114.5,155C 112.942,154.79 111.609,154.29 110.5,153.5C 115.348,153.576 120.181,153.909 125,154.5C 127.978,154.852 130.478,154.018 132.5,152C 129.424,151.654 126.424,150.988 123.5,150C 117.069,145.64 110.069,142.64 102.5,141C 98.8618,139.495 95.1951,139.162 91.5,140C 86.1498,134.831 81.8164,128.998 78.5,122.5 Z"/></g>
    <g><path style="opacity:1" fill="#a6deda" d="M 72.5,113.5 C 78.8269,114.413 84.8269,116.246 90.5,119C 102.665,127.333 115.998,132.833 130.5,135.5C 138.922,137.036 147.256,136.702 155.5,134.5C 157.792,134.244 159.959,134.577 162,135.5C 162.667,134.833 163.333,134.167 164,133.5C 164.667,137.167 164.667,140.833 164,144.5C 161.401,146.879 158.567,148.879 155.5,150.5C 154.678,148.272 153.345,147.605 151.5,148.5C 148.308,147.134 144.974,146.301 141.5,146C 139.884,145.385 138.551,144.385 137.5,143C 131.76,141.962 126.093,140.629 120.5,139C 116.728,137.611 116.728,136.611 120.5,136C 108.868,137.179 98.5348,134.012 89.5,126.5C 88.914,126.709 88.414,127.043 88,127.5C 84.3655,126.475 81.1989,124.808 78.5,122.5C 77.3221,118.982 75.3221,115.982 72.5,113.5 Z"/></g>
    <g><path style="opacity:1" fill="#0088b2" d="M 26.5,136.5 C 27.9187,135.549 29.5853,135.216 31.5,135.5C 37.5182,136.541 44.0182,138.541 51,141.5C 57.451,145.797 64.6176,147.963 72.5,148C 77.1636,151.721 82.4969,153.555 88.5,153.5C 88.3497,156.926 89.5163,157.259 92,154.5C 93.3068,155.772 94.8068,156.772 96.5,157.5C 96.2907,158.086 95.9574,158.586 95.5,159C 101.424,162.416 107.59,165.25 114,167.5C 114.414,167.043 114.914,166.709 115.5,166.5C 118.129,169.238 121.129,170.238 124.5,169.5C 126.875,170.902 129.209,172.235 131.5,173.5C 124.826,173.456 118.493,172.122 112.5,169.5C 111.914,169.709 111.414,170.043 111,170.5C 105.752,168.393 100.585,166.059 95.5,163.5C 86.0616,160.646 76.7283,157.479 67.5,154C 64.1258,152.773 60.7924,152.606 57.5,153.5C 57.6495,152.448 57.4828,151.448 57,150.5C 56.6667,150.833 56.3333,151.167 56,151.5C 51.5972,149.476 47.0972,147.642 42.5,146C 38.9464,143.607 35.2797,141.44 31.5,139.5C 29.9519,139.179 29.2852,138.179 29.5,136.5C 28.5,136.5 27.5,136.5 26.5,136.5 Z"/></g>
    <g><path style="opacity:1" fill="#056c9a" d="M 26.5,136.5 C 27.5,136.5 28.5,136.5 29.5,136.5C 29.2852,138.179 29.9519,139.179 31.5,139.5C 33.2336,143.3 35.2336,146.966 37.5,150.5C 36.1779,150.33 35.0113,150.663 34,151.5C 26.5852,149.63 19.5852,146.63 13,142.5C 12.8261,147.684 12.3261,152.684 11.5,157.5C 11.1712,151.794 11.5046,146.128 12.5,140.5C 15.0832,139.191 17.7499,138.191 20.5,137.5C 22.5,137.167 24.5,136.833 26.5,136.5 Z"/></g>
    <g><path style="opacity:1" fill="#005f8f" d="M 37.5,150.5 C 40.09,151.128 42.4234,152.295 44.5,154C 38.3193,154.172 32.3193,154.672 26.5,155.5C 21.8485,155.627 17.5152,156.627 13.5,158.5C 12.5084,158.672 11.8417,158.338 11.5,157.5C 12.3261,152.684 12.8261,147.684 13,142.5C 19.5852,146.63 26.5852,149.63 34,151.5C 35.0113,150.663 36.1779,150.33 37.5,150.5 Z"/></g>
    <g><path style="opacity:1" fill="#0592ba" d="M 31.5,135.5 C 45.7772,133.186 59.7772,134.686 73.5,140C 82.1667,144.667 90.8333,149.333 99.5,154C 104.747,155.072 109.747,156.572 114.5,158.5C 117.464,162.466 120.797,166.133 124.5,169.5C 121.129,170.238 118.129,169.238 115.5,166.5C 114.914,166.709 114.414,167.043 114,167.5C 107.59,165.25 101.424,162.416 95.5,159C 95.9574,158.586 96.2907,158.086 96.5,157.5C 94.8068,156.772 93.3068,155.772 92,154.5C 89.5163,157.259 88.3497,156.926 88.5,153.5C 82.4969,153.555 77.1636,151.721 72.5,148C 64.6176,147.963 57.451,145.797 51,141.5C 44.0182,138.541 37.5182,136.541 31.5,135.5 Z"/></g>
    <g><path style="opacity:1" fill="#e1f6f6" d="M 64.5,132.5 C 74.8467,136.841 84.8467,142.008 94.5,148C 99.6459,150.451 104.979,152.284 110.5,153.5C 111.609,154.29 112.942,154.79 114.5,155C 123.5,155.667 132.5,155.667 141.5,155C 146.475,154.31 151.141,152.81 155.5,150.5C 158.567,148.879 161.401,146.879 164,144.5C 164.667,140.833 164.667,137.167 164,133.5C 163.333,134.167 162.667,134.833 162,135.5C 159.959,134.577 157.792,134.244 155.5,134.5C 158.338,133.365 161.338,132.365 164.5,131.5C 165.802,136.385 165.802,141.218 164.5,146C 166.059,147.996 166.726,150.329 166.5,153C 166.494,155.033 166.161,156.866 165.5,158.5C 165.82,155.102 165.487,151.768 164.5,148.5C 149.276,158.468 132.609,161.801 114.5,158.5C 109.747,156.572 104.747,155.072 99.5,154C 90.8333,149.333 82.1667,144.667 73.5,140C 59.7772,134.686 45.7772,133.186 31.5,135.5C 29.5853,135.216 27.9187,135.549 26.5,136.5C 24.5,136.833 22.5,137.167 20.5,137.5C 20.1788,135.952 19.1788,135.285 17.5,135.5C 21.756,133.095 26.4227,131.595 31.5,131C 42.5497,130.392 53.5497,130.892 64.5,132.5 Z"/></g>
    <g><path style="opacity:1" fill="#0a7da8" d="M 31.5,139.5 C 35.2797,141.44 38.9464,143.607 42.5,146C 47.0972,147.642 51.5972,149.476 56,151.5C 56.3333,151.167 56.6667,150.833 57,150.5C 57.4828,151.448 57.6495,152.448 57.5,153.5C 60.7924,152.606 64.1258,152.773 67.5,154C 76.7283,157.479 86.0616,160.646 95.5,163.5C 100.585,166.059 105.752,168.393 111,170.5C 111.414,170.043 111.914,169.709 112.5,169.5C 118.493,172.122 124.826,173.456 131.5,173.5C 132.833,174.167 134.167,174.833 135.5,175.5C 128.455,179.467 120.788,181.134 112.5,180.5C 100.141,178.657 88.808,174.157 78.5,167C 62.379,157.979 45.0457,154.146 26.5,155.5C 32.3193,154.672 38.3193,154.172 44.5,154C 42.4234,152.295 40.09,151.128 37.5,150.5C 35.2336,146.966 33.2336,143.3 31.5,139.5 Z"/></g>
    <g><path style="opacity:1" fill="#12abcf" d="M 165.5,158.5 C 155.52,164.134 145.52,169.801 135.5,175.5C 134.167,174.833 132.833,174.167 131.5,173.5C 129.209,172.235 126.875,170.902 124.5,169.5C 120.797,166.133 117.464,162.466 114.5,158.5C 132.609,161.801 149.276,158.468 164.5,148.5C 165.487,151.768 165.82,155.102 165.5,158.5 Z"/></g>
    <g><path style="opacity:1" fill="#141345" d="M 45.5,159.5 C 46.4564,161.516 47.7898,163.349 49.5,165C 55.8766,168.851 61.8766,173.184 67.5,178C 72.1474,179.075 76.6474,180.575 81,182.5C 81.414,182.043 81.914,181.709 82.5,181.5C 83.9387,183.36 85.6053,185.027 87.5,186.5C 88.8745,185.289 90.3745,184.289 92,183.5C 93.0921,184.296 94.2588,184.963 95.5,185.5C 97.3365,184.067 99.3365,183.567 101.5,184C 102.833,184.667 102.833,185.333 101.5,186C 102.635,186.749 103.635,186.583 104.5,185.5C 103.347,184.313 103.347,183.313 104.5,182.5C 105.167,182.5 105.833,182.5 106.5,182.5C 107.058,183.79 108.058,184.623 109.5,185C 106.765,187.502 103.432,190.169 99.5,193C 98.5,193.167 97.5,193.333 96.5,193.5C 88.0649,190.574 79.7315,187.24 71.5,183.5C 69.2249,184.598 67.0583,185.932 65,187.5C 64.6667,186.5 64.3333,185.5 64,184.5C 62.0245,183.572 60.1911,182.405 58.5,181C 61.2785,180.851 61.7785,180.017 60,178.5C 59.0862,179.654 58.2529,179.487 57.5,178C 57.8333,177.667 58.1667,177.333 58.5,177C 55.5451,174.709 53.2118,175.209 51.5,178.5C 50.2054,177.902 48.8721,177.402 47.5,177C 47.8333,176.667 48.1667,176.333 48.5,176C 46.6797,175.021 45.513,173.521 45,171.5C 44.2411,173.063 43.0744,174.063 41.5,174.5C 33.2031,170.685 25.2031,166.352 17.5,161.5C 17.9569,160.702 18.6236,160.369 19.5,160.5C 28.1116,158.504 36.7782,158.171 45.5,159.5 Z"/></g>
    <g><path style="opacity:1" fill="#171c51" d="M 45.5,159.5 C 52.9769,160.703 60.3102,162.536 67.5,165C 75.6717,169.92 84.005,174.587 92.5,179C 96.494,179.945 100.494,180.778 104.5,181.5C 104.5,181.833 104.5,182.167 104.5,182.5C 103.347,183.313 103.347,184.313 104.5,185.5C 103.635,186.583 102.635,186.749 101.5,186C 102.833,185.333 102.833,184.667 101.5,184C 99.3365,183.567 97.3365,184.067 95.5,185.5C 94.2588,184.963 93.0921,184.296 92,183.5C 90.3745,184.289 88.8745,185.289 87.5,186.5C 85.6053,185.027 83.9387,183.36 82.5,181.5C 81.914,181.709 81.414,182.043 81,182.5C 76.6474,180.575 72.1474,179.075 67.5,178C 61.8766,173.184 55.8766,168.851 49.5,165C 47.7898,163.349 46.4564,161.516 45.5,159.5 Z"/></g>
    <g><path style="opacity:1" fill="#e2edf0" d="M 26.5,155.5 C 45.0457,154.146 62.379,157.979 78.5,167C 88.808,174.157 100.141,178.657 112.5,180.5C 109.615,180.194 106.948,180.527 104.5,181.5C 100.494,180.778 96.494,179.945 92.5,179C 84.005,174.587 75.6717,169.92 67.5,165C 60.3102,162.536 52.9769,160.703 45.5,159.5C 36.7782,158.171 28.1116,158.504 19.5,160.5C 18.0101,158.72 16.0101,158.054 13.5,158.5C 17.5152,156.627 21.8485,155.627 26.5,155.5 Z"/></g>
    <g><path style="opacity:1" fill="#141440" d="M 106.5,182.5 C 111.136,183.149 115.802,183.649 120.5,184C 109.702,189.9 99.0353,196.067 88.5,202.5C 72.6371,193.406 56.9705,184.072 41.5,174.5C 43.0744,174.063 44.2411,173.063 45,171.5C 45.513,173.521 46.6797,175.021 48.5,176C 48.1667,176.333 47.8333,176.667 47.5,177C 48.8721,177.402 50.2054,177.902 51.5,178.5C 53.2118,175.209 55.5451,174.709 58.5,177C 58.1667,177.333 57.8333,177.667 57.5,178C 58.2529,179.487 59.0862,179.654 60,178.5C 61.7785,180.017 61.2785,180.851 58.5,181C 60.1911,182.405 62.0245,183.572 64,184.5C 64.3333,185.5 64.6667,186.5 65,187.5C 67.0583,185.932 69.2249,184.598 71.5,183.5C 79.7315,187.24 88.0649,190.574 96.5,193.5C 97.5,193.333 98.5,193.167 99.5,193C 103.432,190.169 106.765,187.502 109.5,185C 108.058,184.623 107.058,183.79 106.5,182.5 Z"/></g>
</svg>
